:SAMPLES-PER-SECOND 30
:FULLY-SPECIFIED
:DEGREES
761
root  -15.0774 39.299 -1.35473 -40.8403 -86.1577 35.8717
RightUpLeg  -18.0843 1.18393 -7.51443
RightLeg  47.7484 -1.14233 -1.68114
RightFoot  -7.16961 -0.322199 7.50313
RightToes  -1.16417e-010 0 -3.6325e-017
Spine  8.51428 -0.184765 -4.30375
Spine1  4.97614 -0.380255 -2.33974
HEad  -18.97 1.97663 -3.10774
LeftShoulder1  -0.471468 4.72299 -32.5209
LeftArm  11.9381 -14.5926 -45.8198
LeftForeArm  22.9487 -15.3624 -8.18678
LeftHand  -0.00369542 8.38915 1.58635
RightShoulder  -0.746349 -5.60992 28.7887
RightArm  26.0991 -9.13778 47.6776
RightForeArm  15.0425 14.9377 7.08514
RightHand  -0.00842829 3.72361 -0.279179
LeftUpLeg  -0.695645 4.84122 -4.90896
LeftLeg  17.9853 2.71803 1.23363
LeftFoot  -11.8492 0.100618 6.54246
LeftToes  3.13772e-010 -3.14513e-011 3.96022e-013
762
root  -15.8106 39.2752 -1.18961 -38.7545 -86.2936 33.6824
RightUpLeg  -19.4955 0.794707 -6.71721
RightLeg  40.7701 -0.96154 -1.17053
RightFoot  -7.50789 -0.322371 8.08721
RightToes  -1.16417e-010 0 -3.6325e-017
Spine  8.45881 -0.306939 -4.31004
Spine1  5.3275 -0.498599 -1.88828
HEad  -18.6982 1.13352 -2.37617
LeftShoulder1  -0.384555 4.51482 -31.8927
LeftArm  13.8573 -17.6342 -46.992
LeftForeArm  20.1709 -16.8699 -7.34236
LeftHand  0.0333811 8.16373 2.90652
RightShoulder  -0.744399 -5.60875 28.7132
RightArm  26.4507 -10.1304 47.4726
RightForeArm  17.4613 14.7143 7.16851
RightHand  0.131711 2.91077 1.66561
LeftUpLeg  0.780916 5.22499 -4.69418
LeftLeg  17.8139 2.40911 1.08419
LeftFoot  -12.9189 0.170097 6.72755
LeftToes  3.13772e-010 -3.14513e-011 3.96022e-013
763
root  -16.5597 39.2495 -1.03645 -34.0474 -86.1505 29.0353
RightUpLeg  -20.3436 -0.186287 -5.95194
RightLeg  32.6809 -0.57746 -0.635675
RightFoot  -7.55849 -0.326532 8.3124
RightToes  -1.16417e-010 0 -3.6325e-017
Spine  8.42709 -0.540486 -4.17684
Spine1  5.47347 -0.699374 -1.44217
HEad  -18.4232 0.879461 -1.62588
LeftShoulder1  -0.298518 4.30345 -31.206
LeftArm  14.6835 -20.1273 -48.2466
LeftForeArm  18.5716 -17.9854 -6.6124
LeftHand  0.116004 9.37156 4.68055
RightShoulder  -0.732497 -5.5714 28.7639
RightArm  26.9147 -10.7993 47.201
RightForeArm  16.6869 14.0225 7.68087
RightHand  -0.0493863 3.547 -0.912557
LeftUpLeg  2.21945 4.91604 -4.70441
LeftLeg  17.3545 2.42357 1.21397
LeftFoot  -13.8952 0.231912 6.63311
LeftToes  3.13772e-010 -3.14513e-011 3.96022e-013
764
root  -17.3705 39.2034 -0.886374 -36.0655 -86.1798 31.1724
RightUpLeg  -20.7148 -1.21088 -5.28607
RightLeg  24.1792 -0.120891 -0.26867
RightFoot  -7.64439 -0.316955 8.19416
RightToes  -1.16417e-010 0 -3.6325e-017
Spine  8.51334 -0.533985 -3.8711
Spine1  5.26479 -0.570532 -1.43447
HEad  -18.3134 0.258733 -1.56007
LeftShoulder1  -0.278245 4.2628 -30.5312
LeftArm  17.5854 -21.8421 -49.1155
LeftForeArm  15.6709 -19.6396 -5.71346
LeftHand  0.0993423 8.98908 4.54858
RightShoulder  -0.772452 -5.66157 29.1592
RightArm  27.0447 -11.4497 46.5191
RightForeArm  17.6189 13.572 7.90989
RightHand  -0.0145805 3.29155 -0.419285
LeftUpLeg  3.86747 4.99447 -4.89683
LeftLeg  16.62 2.61777 1.21775
LeftFoot  -14.819 0.293632 6.73233
LeftToes  3.13772e-010 -3.14513e-011 3.96022e-013
765
root  -18.2346 39.135 -0.749289 -37.0484 -86.018 32.3763
RightUpLeg  -20.7406 -3.32612 -4.38187
RightLeg  15.8034 1.13873 0.122007
RightFoot  -7.64501 -0.328257 8.54232
RightToes  -1.16417e-010 0 -3.6325e-017
Spine  8.12807 -0.521965 -3.79584
Spine1  5.55151 -0.581555 -0.896507
HEad  -18.3473 -0.37241 -2.02978
LeftShoulder1  -0.291741 4.30275 -30.3789
LeftArm  20.0071 -23.0807 -49.6917
LeftForeArm  13.8655 -21.1711 -4.98169
LeftHand  0.0432653 8.43354 3.20757
RightShoulder  -0.751677 -5.60915 29.0517
RightArm  25.9762 -12.1813 46.2605
RightForeArm  17.7855 13.1088 8.00495
RightHand  -0.0753567 4.3376 -1.18786
LeftUpLeg  5.49644 5.10004 -5.04379
LeftLeg  15.8725 2.44368 1.07303
LeftFoot  -15.7944 0.352078 6.60359
LeftToes  3.13772e-010 -3.14513e-011 3.96022e-013
766
root  -19.1595 39.0399 -0.625563 -38.2677 -85.6781 33.9719
RightUpLeg  -20.6098 -5.8131 -3.45636
RightLeg  7.96161 3.55837 0.609655
RightFoot  -7.652 -0.336941 8.82966
RightToes  -1.16417e-010 0 -3.6325e-017
Spine  7.62028 -0.602722 -3.42602
Spine1  5.71427 -0.60186 -0.777727
HEad  -17.4916 -0.407311 -0.913372
LeftShoulder1  -0.321383 4.38039 -30.5178
LeftArm  22.4889 -23.3485 -49.479
LeftForeArm  12.0093 -23.3868 -4.41424
LeftHand  0.0211181 7.49051 3.23468
RightShoulder  -0.776028 -5.66769 29.2243
RightArm  25.1998 -12.5598 45.8093
RightForeArm  18.6155 12.761 8.01206
RightHand  -0.0432502 4.08074 -0.794175
LeftUpLeg  7.08141 5.0886 -5.3174
LeftLeg  15.077 2.25438 0.937807
LeftFoot  -16.7686 0.407856 6.46825
LeftToes  3.13772e-010 -3.14513e-011 3.96022e-013
767
root  -20.1341 38.9055 -0.525854 -36.929 -85.0649 32.903
RightUpLeg  -20.0878 -5.90167 -3.46848
RightLeg  1.39941 3.81511 0.625475
RightFoot  -7.78984 -0.366175 10.071
RightToes  -1.16417e-010 0 -3.6325e-017
Spine  7.08281 -0.756816 -3.36431
Spine1  6.07373 -0.839636 -0.281409
HEad  -17.6453 -0.571987 -1.18469
LeftShoulder1  -0.388079 4.55269 -30.8601
LeftArm  22.072 -23.0766 -49.2279
LeftForeArm  13.8092 -24.9851 -4.61083
LeftHand  0.0280172 8.52307 2.59141
RightShoulder  -0.752547 -5.59829 29.2769
RightArm  24.161 -12.6137 45.4306
RightForeArm  19.2629 12.4706 7.93374
RightHand  0.00540159 3.56533 -0.188118
LeftUpLeg  8.71446 4.92053 -5.54477
LeftLeg  14.5783 1.8843 0.877892
LeftFoot  -17.8225 0.462449 6.26363
LeftToes  3.13772e-010 -3.14513e-011 3.96022e-013
